<mxfile host="app.diagrams.net" modified="2024-03-12T11:04:05.996Z" agent="Mozilla/5.0 (Windows NT 10.0; Win64; x64) AppleWebKit/537.36 (KHTML, like Gecko) Chrome/122.0.0.0 Safari/537.36" etag="dp0UC3eiZAe5Enoc1yat" version="24.0.5" type="device">
  <diagram name="페이지-1" id="Z_AxEMy0zzlvS63k3HP1">
    <mxGraphModel dx="1434" dy="746" grid="1" gridSize="10" guides="1" tooltips="1" connect="1" arrows="1" fold="1" page="1" pageScale="1" pageWidth="827" pageHeight="1169" math="0" shadow="0">
      <root>
        <mxCell id="0" />
        <mxCell id="1" parent="0" />
        <mxCell id="mpdxEOSK8AwaiTYZgKgU-11" style="edgeStyle=orthogonalEdgeStyle;rounded=0;orthogonalLoop=1;jettySize=auto;html=1;exitX=0.5;exitY=1;exitDx=0;exitDy=0;entryX=0.5;entryY=0;entryDx=0;entryDy=0;" edge="1" parent="1" source="mpdxEOSK8AwaiTYZgKgU-1" target="mpdxEOSK8AwaiTYZgKgU-2">
          <mxGeometry relative="1" as="geometry" />
        </mxCell>
        <mxCell id="mpdxEOSK8AwaiTYZgKgU-1" value="점수입력" style="shape=parallelogram;perimeter=parallelogramPerimeter;whiteSpace=wrap;html=1;fixedSize=1;" vertex="1" parent="1">
          <mxGeometry x="340" y="50" width="120" height="60" as="geometry" />
        </mxCell>
        <mxCell id="mpdxEOSK8AwaiTYZgKgU-12" style="edgeStyle=orthogonalEdgeStyle;rounded=0;orthogonalLoop=1;jettySize=auto;html=1;exitX=1;exitY=0.5;exitDx=0;exitDy=0;entryX=0;entryY=0.5;entryDx=0;entryDy=0;" edge="1" parent="1" source="mpdxEOSK8AwaiTYZgKgU-2" target="mpdxEOSK8AwaiTYZgKgU-6">
          <mxGeometry relative="1" as="geometry" />
        </mxCell>
        <mxCell id="mpdxEOSK8AwaiTYZgKgU-13" style="edgeStyle=orthogonalEdgeStyle;rounded=0;orthogonalLoop=1;jettySize=auto;html=1;exitX=0.5;exitY=1;exitDx=0;exitDy=0;entryX=0.5;entryY=0;entryDx=0;entryDy=0;" edge="1" parent="1" source="mpdxEOSK8AwaiTYZgKgU-2" target="mpdxEOSK8AwaiTYZgKgU-3">
          <mxGeometry relative="1" as="geometry" />
        </mxCell>
        <mxCell id="mpdxEOSK8AwaiTYZgKgU-2" value="점수&amp;gt;=90" style="rhombus;whiteSpace=wrap;html=1;" vertex="1" parent="1">
          <mxGeometry x="323" y="160" width="154" height="80" as="geometry" />
        </mxCell>
        <mxCell id="mpdxEOSK8AwaiTYZgKgU-14" style="edgeStyle=orthogonalEdgeStyle;rounded=0;orthogonalLoop=1;jettySize=auto;html=1;exitX=0.5;exitY=1;exitDx=0;exitDy=0;entryX=0.5;entryY=0;entryDx=0;entryDy=0;" edge="1" parent="1" source="mpdxEOSK8AwaiTYZgKgU-3" target="mpdxEOSK8AwaiTYZgKgU-4">
          <mxGeometry relative="1" as="geometry" />
        </mxCell>
        <mxCell id="mpdxEOSK8AwaiTYZgKgU-19" style="edgeStyle=orthogonalEdgeStyle;rounded=0;orthogonalLoop=1;jettySize=auto;html=1;exitX=1;exitY=0.5;exitDx=0;exitDy=0;entryX=0;entryY=0.5;entryDx=0;entryDy=0;" edge="1" parent="1" source="mpdxEOSK8AwaiTYZgKgU-3" target="mpdxEOSK8AwaiTYZgKgU-7">
          <mxGeometry relative="1" as="geometry" />
        </mxCell>
        <mxCell id="mpdxEOSK8AwaiTYZgKgU-3" value="점수&amp;gt;=80" style="rhombus;whiteSpace=wrap;html=1;" vertex="1" parent="1">
          <mxGeometry x="323" y="280" width="154" height="80" as="geometry" />
        </mxCell>
        <mxCell id="mpdxEOSK8AwaiTYZgKgU-15" style="edgeStyle=orthogonalEdgeStyle;rounded=0;orthogonalLoop=1;jettySize=auto;html=1;exitX=0.5;exitY=1;exitDx=0;exitDy=0;entryX=0.5;entryY=0;entryDx=0;entryDy=0;" edge="1" parent="1" source="mpdxEOSK8AwaiTYZgKgU-4" target="mpdxEOSK8AwaiTYZgKgU-5">
          <mxGeometry relative="1" as="geometry" />
        </mxCell>
        <mxCell id="mpdxEOSK8AwaiTYZgKgU-20" style="edgeStyle=orthogonalEdgeStyle;rounded=0;orthogonalLoop=1;jettySize=auto;html=1;exitX=1;exitY=0.5;exitDx=0;exitDy=0;" edge="1" parent="1" source="mpdxEOSK8AwaiTYZgKgU-4" target="mpdxEOSK8AwaiTYZgKgU-8">
          <mxGeometry relative="1" as="geometry" />
        </mxCell>
        <mxCell id="mpdxEOSK8AwaiTYZgKgU-4" value="점수&amp;gt;=70" style="rhombus;whiteSpace=wrap;html=1;" vertex="1" parent="1">
          <mxGeometry x="323" y="410" width="154" height="80" as="geometry" />
        </mxCell>
        <mxCell id="mpdxEOSK8AwaiTYZgKgU-16" style="edgeStyle=orthogonalEdgeStyle;rounded=0;orthogonalLoop=1;jettySize=auto;html=1;exitX=0.5;exitY=1;exitDx=0;exitDy=0;entryX=0.5;entryY=0;entryDx=0;entryDy=0;" edge="1" parent="1" source="mpdxEOSK8AwaiTYZgKgU-5" target="mpdxEOSK8AwaiTYZgKgU-10">
          <mxGeometry relative="1" as="geometry" />
        </mxCell>
        <mxCell id="mpdxEOSK8AwaiTYZgKgU-21" style="edgeStyle=orthogonalEdgeStyle;rounded=0;orthogonalLoop=1;jettySize=auto;html=1;exitX=1;exitY=0.5;exitDx=0;exitDy=0;" edge="1" parent="1" source="mpdxEOSK8AwaiTYZgKgU-5" target="mpdxEOSK8AwaiTYZgKgU-9">
          <mxGeometry relative="1" as="geometry" />
        </mxCell>
        <mxCell id="mpdxEOSK8AwaiTYZgKgU-5" value="점수&amp;gt;=60" style="rhombus;whiteSpace=wrap;html=1;" vertex="1" parent="1">
          <mxGeometry x="323" y="530" width="154" height="80" as="geometry" />
        </mxCell>
        <mxCell id="mpdxEOSK8AwaiTYZgKgU-23" style="edgeStyle=orthogonalEdgeStyle;rounded=0;orthogonalLoop=1;jettySize=auto;html=1;exitX=1;exitY=0.5;exitDx=0;exitDy=0;" edge="1" parent="1" source="mpdxEOSK8AwaiTYZgKgU-6">
          <mxGeometry relative="1" as="geometry">
            <mxPoint x="400" y="850" as="targetPoint" />
            <Array as="points">
              <mxPoint x="780" y="200" />
              <mxPoint x="780" y="780" />
              <mxPoint x="401" y="780" />
            </Array>
          </mxGeometry>
        </mxCell>
        <mxCell id="mpdxEOSK8AwaiTYZgKgU-6" value="A" style="rounded=0;whiteSpace=wrap;html=1;" vertex="1" parent="1">
          <mxGeometry x="560" y="170" width="120" height="60" as="geometry" />
        </mxCell>
        <mxCell id="mpdxEOSK8AwaiTYZgKgU-24" style="edgeStyle=orthogonalEdgeStyle;rounded=0;orthogonalLoop=1;jettySize=auto;html=1;exitX=1;exitY=0.5;exitDx=0;exitDy=0;" edge="1" parent="1" source="mpdxEOSK8AwaiTYZgKgU-7">
          <mxGeometry relative="1" as="geometry">
            <mxPoint x="780" y="320" as="targetPoint" />
          </mxGeometry>
        </mxCell>
        <mxCell id="mpdxEOSK8AwaiTYZgKgU-7" value="B" style="rounded=0;whiteSpace=wrap;html=1;" vertex="1" parent="1">
          <mxGeometry x="560" y="290" width="120" height="60" as="geometry" />
        </mxCell>
        <mxCell id="mpdxEOSK8AwaiTYZgKgU-25" style="edgeStyle=orthogonalEdgeStyle;rounded=0;orthogonalLoop=1;jettySize=auto;html=1;exitX=1;exitY=0.5;exitDx=0;exitDy=0;" edge="1" parent="1" source="mpdxEOSK8AwaiTYZgKgU-8">
          <mxGeometry relative="1" as="geometry">
            <mxPoint x="780" y="450" as="targetPoint" />
          </mxGeometry>
        </mxCell>
        <mxCell id="mpdxEOSK8AwaiTYZgKgU-8" value="C" style="rounded=0;whiteSpace=wrap;html=1;" vertex="1" parent="1">
          <mxGeometry x="560" y="420" width="120" height="60" as="geometry" />
        </mxCell>
        <mxCell id="mpdxEOSK8AwaiTYZgKgU-26" style="edgeStyle=orthogonalEdgeStyle;rounded=0;orthogonalLoop=1;jettySize=auto;html=1;exitX=1;exitY=0.5;exitDx=0;exitDy=0;" edge="1" parent="1" source="mpdxEOSK8AwaiTYZgKgU-9">
          <mxGeometry relative="1" as="geometry">
            <mxPoint x="780" y="570" as="targetPoint" />
          </mxGeometry>
        </mxCell>
        <mxCell id="mpdxEOSK8AwaiTYZgKgU-9" value="D" style="rounded=0;whiteSpace=wrap;html=1;" vertex="1" parent="1">
          <mxGeometry x="560" y="540" width="120" height="60" as="geometry" />
        </mxCell>
        <mxCell id="mpdxEOSK8AwaiTYZgKgU-17" style="edgeStyle=orthogonalEdgeStyle;rounded=0;orthogonalLoop=1;jettySize=auto;html=1;exitX=0.5;exitY=1;exitDx=0;exitDy=0;" edge="1" parent="1" source="mpdxEOSK8AwaiTYZgKgU-10">
          <mxGeometry relative="1" as="geometry">
            <mxPoint x="400" y="850" as="targetPoint" />
            <Array as="points">
              <mxPoint x="400" y="820" />
              <mxPoint x="401" y="820" />
            </Array>
          </mxGeometry>
        </mxCell>
        <mxCell id="mpdxEOSK8AwaiTYZgKgU-10" value="F" style="rhombus;whiteSpace=wrap;html=1;" vertex="1" parent="1">
          <mxGeometry x="323" y="660" width="154" height="80" as="geometry" />
        </mxCell>
      </root>
    </mxGraphModel>
  </diagram>
</mxfile>
